<svg xmlns="http://www.w3.org/2000/svg" width="512" height="512" viewBox="0 0 512 512" version="1.1">
	<path d="M 0 256.002 L 0 512.004 256.250 511.752 L 512.500 511.500 512.752 255.750 L 513.004 0 256.502 0 L 0 0 0 256.002 M 0.492 256.500 C 0.492 397.300, 0.608 454.751, 0.750 384.170 C 0.892 313.588, 0.892 198.388, 0.750 128.170 C 0.608 57.951, 0.492 115.700, 0.492 256.500 M 241 116.614 C 224.677 118.616, 205.497 124.562, 191.128 132.076 C 153.407 151.802, 127.478 186.680, 118.330 230 C 115.538 243.219, 115.792 270.199, 118.838 283.881 C 125.159 312.277, 137.636 335.437, 157.099 354.901 C 176.723 374.524, 201.346 387.619, 230 393.670 C 243.219 396.462, 270.199 396.208, 283.881 393.162 C 312.277 386.841, 335.437 374.364, 354.901 354.901 C 374.524 335.277, 387.619 310.654, 393.670 282 C 396.462 268.781, 396.208 241.801, 393.162 228.119 C 390.078 214.265, 385.862 202.483, 379.924 191.128 C 360.287 153.577, 325.099 127.335, 282.500 118.472 C 274.757 116.861, 248.554 115.688, 241 116.614" stroke="none" fill="black" fill-rule="evenodd"/>
</svg>